<?xml version="1.0" standalone="no"?>
<!DOCTYPE svg PUBLIC "-//W3C//DTD SVG 20010904//EN"
 "http://www.w3.org/TR/2001/REC-SVG-20010904/DTD/svg10.dtd">
<svg version="1.0" xmlns="http://www.w3.org/2000/svg"
 width="728.000000pt" height="319.000000pt" viewBox="0 0 728.000000 319.000000"
 preserveAspectRatio="xMidYMid meet">
<metadata>
Created by potrace 1.16, written by Peter Selinger 2001-2019
</metadata>
<g transform="translate(0.000000,319.000000) scale(0.100000,-0.100000)"
fill="#CCEEFF" stroke="none">
<path d="M1427 3077 c-3 -8 -2 -20 3 -27 11 -18 42 -4 38 17 -4 22 -34 29 -41
10z"/>
<path d="M1698 3059 c-26 -15 -24 -75 2 -89 43 -23 92 20 70 60 -6 11 -19 24
-30 30 -22 12 -21 12 -42 -1z"/>
<path d="M1944 3046 c-9 -24 4 -48 23 -44 12 2 18 12 18 28 0 29 -32 41 -41
16z"/>
<path d="M1226 3014 c-29 -29 -13 -68 25 -62 18 2 25 10 27 30 4 35 -29 56
-52 32z"/>
<path d="M1446 2954 c-40 -40 -8 -114 49 -114 49 0 75 79 37 113 -23 21 -66
22 -86 1z"/>
<path d="M2170 2941 c-14 -27 -13 -37 6 -55 37 -38 90 5 65 53 -15 27 -57 28
-71 2z"/>
<path d="M1024 2926 c-3 -8 -4 -25 -2 -38 2 -18 9 -23 32 -23 36 0 56 27 40
53 -14 22 -62 28 -70 8z"/>
<path d="M1930 2890 c-41 -41 -13 -110 45 -110 59 0 87 69 43 110 -28 25 -62
26 -88 0z"/>
<path d="M2415 2870 c-6 -20 9 -50 26 -50 4 0 15 7 23 16 12 12 13 20 6 35
-14 25 -47 24 -55 -1z"/>
<path d="M1710 2807 c-40 -20 -54 -59 -36 -102 34 -81 146 -61 146 26 0 41
-10 58 -41 74 -34 18 -37 18 -69 2z"/>
<path d="M1210 2790 c-30 -30 -27 -83 6 -109 15 -12 38 -21 51 -21 33 0 73 42
73 78 0 61 -86 96 -130 52z"/>
<path d="M864 2775 c-23 -36 -6 -75 33 -75 40 0 56 13 56 46 0 52 -61 72 -89
29z"/>
<path d="M2587 2740 c-79 -62 -13 -184 78 -146 62 26 74 89 26 137 -35 34 -68
37 -104 9z"/>
<path d="M2246 2725 c-22 -20 -26 -33 -26 -75 0 -44 5 -56 29 -81 33 -33 75
-38 120 -15 32 17 51 54 51 102 0 82 -112 127 -174 69z"/>
<path d="M624 2715 c-7 -18 12 -45 32 -45 16 0 33 30 27 48 -7 17 -52 15 -59
-3z"/>
<path d="M1486 2657 c-35 -35 -35 -89 -1 -122 33 -33 78 -33 112 1 46 46 16
126 -54 140 -26 5 -37 1 -57 -19z"/>
<path d="M1984 2631 c-81 -35 -64 -177 23 -194 61 -11 123 43 123 107 0 59
-88 111 -146 87z"/>
<path d="M1025 2585 c-52 -51 -15 -135 59 -135 42 0 76 37 76 82 0 39 -40 78
-80 78 -19 0 -40 -9 -55 -25z"/>
<path d="M740 2570 c-11 -11 -20 -29 -20 -40 0 -11 9 -29 20 -40 11 -11 29
-20 40 -20 24 0 60 34 60 55 0 20 -45 65 -65 65 -8 0 -24 -9 -35 -20z"/>
<path d="M496 2544 c-8 -22 11 -44 39 -44 27 0 40 27 24 46 -16 19 -55 18 -63
-2z"/>
<path d="M2610 2505 c-177 -38 -420 -143 -567 -244 -168 -115 -277 -233 -361
-391 -59 -110 -82 -202 -82 -333 0 -107 11 -135 24 -58 9 59 90 213 155 294
112 140 228 237 397 331 196 109 411 174 611 185 139 7 151 13 160 79 7 54
-23 103 -81 131 -51 25 -155 27 -256 6z"/>
<path d="M1323 2485 c-73 -51 -5 -169 77 -135 36 15 50 37 50 79 0 60 -74 93
-127 56z"/>
<path d="M1745 2455 c-36 -35 -34 -88 4 -126 18 -17 40 -29 56 -29 38 0 85 50
85 90 0 22 -9 41 -29 61 -38 37 -82 39 -116 4z"/>
<path d="M390 2369 c-9 -15 -8 -24 1 -35 28 -33 80 -3 59 35 -6 12 -19 21 -30
21 -11 0 -24 -9 -30 -21z"/>
<path d="M600 2330 c-27 -27 -27 -90 0 -115 31 -28 79 -24 107 9 28 34 29 65
2 100 -26 33 -79 36 -109 6z"/>
<path d="M907 2338 c-21 -17 -38 -63 -30 -85 21 -59 95 -74 132 -27 43 55 14
124 -52 124 -18 0 -41 -6 -50 -12z"/>
<path d="M1586 2319 c-52 -41 -20 -129 47 -129 64 0 92 89 41 129 -15 12 -34
21 -44 21 -10 0 -29 -9 -44 -21z"/>
<path d="M1203 2300 c-46 -19 -57 -83 -20 -118 48 -45 117 -14 117 51 0 51
-50 86 -97 67z"/>
<path d="M2740 2194 c-426 -77 -733 -244 -931 -506 -58 -78 -149 -245 -149
-275 0 -7 30 19 68 59 105 113 131 136 227 200 125 84 264 150 424 202 192 63
316 80 516 73 96 -3 167 -2 178 4 23 13 47 62 47 95 0 43 -41 104 -85 127 -33
17 -61 21 -155 23 -63 1 -126 0 -140 -2z"/>
<path d="M1420 2170 c-39 -39 -14 -100 41 -100 30 0 43 9 58 37 31 60 -50 112
-99 63z"/>
<path d="M320 2160 c-11 -11 -20 -29 -20 -40 0 -26 34 -60 60 -60 11 0 29 9
40 20 11 11 20 29 20 40 0 11 -9 29 -20 40 -11 11 -29 20 -40 20 -11 0 -29 -9
-40 -20z"/>
<path d="M845 2060 c-54 -59 14 -152 84 -115 47 24 56 78 18 113 -30 28 -78
29 -102 2z"/>
<path d="M1580 2066 c-29 -36 13 -92 58 -75 25 9 31 56 10 77 -16 16 -53 15
-68 -2z"/>
<path d="M1106 2044 c-35 -35 -6 -104 44 -104 32 0 60 31 60 66 0 46 -71 72
-104 38z"/>
<path d="M556 2009 c-29 -34 -32 -50 -14 -82 27 -52 83 -62 123 -22 35 34 34
86 -1 114 -39 31 -77 27 -108 -10z"/>
<path d="M1317 1992 c-36 -39 -15 -82 40 -82 26 0 36 6 45 25 24 53 -46 100
-85 57z"/>
<path d="M1486 1891 c-40 -44 24 -95 66 -53 20 20 20 22 4 46 -20 31 -46 33
-70 7z"/>
<path d="M285 1855 c-14 -13 -25 -36 -25 -50 0 -35 42 -75 78 -75 72 0 102 80
48 127 -35 30 -71 29 -101 -2z"/>
<path d="M2710 1849 c-237 -23 -559 -137 -769 -273 -70 -45 -251 -210 -251
-228 0 -5 26 9 58 30 94 64 162 99 262 136 298 107 649 134 957 71 132 -27
133 -27 165 -8 70 40 84 131 30 195 -36 42 -92 65 -192 77 -94 12 -135 12
-260 0z"/>
<path d="M1086 1804 c-33 -33 -12 -94 32 -94 35 0 52 17 52 50 0 49 -52 76
-84 44z"/>
<path d="M857 1782 c-23 -25 -21 -68 3 -92 55 -55 138 22 89 83 -24 32 -68 36
-92 9z"/>
<path d="M1270 1770 c-27 -50 32 -92 73 -52 18 18 19 25 9 47 -15 32 -66 35
-82 5z"/>
<path d="M1448 1719 c-22 -12 -23 -52 -3 -69 23 -19 67 3 63 31 -4 30 -38 51
-60 38z"/>
<path d="M602 1697 c-24 -26 -28 -73 -9 -99 20 -26 63 -33 92 -14 38 25 49 52
34 87 -21 53 -80 66 -117 26z"/>
<path d="M345 1525 c-14 -13 -25 -36 -25 -50 0 -28 40 -75 64 -75 57 0 93 54
71 107 -21 49 -71 58 -110 18z"/>
<path d="M2415 1518 c-224 -25 -483 -98 -618 -174 -45 -25 -73 -43 -62 -40 11
3 79 18 150 32 116 25 152 28 335 28 172 1 226 -3 335 -23 118 -21 360 -93
427 -127 15 -8 48 -14 74 -14 39 0 51 5 80 34 29 29 34 41 34 82 0 83 -57 135
-188 168 -156 41 -386 55 -567 34z"/>
<path d="M1102 1479 c-358 -60 -704 -376 -867 -792 -92 -236 -98 -442 -15
-500 22 -15 25 -14 74 29 27 25 66 54 86 64 45 23 161 57 224 65 l48 7 -25 26
c-42 44 -79 137 -85 211 -6 83 14 164 69 280 114 243 357 449 609 517 87 23
251 24 303 1 56 -24 35 -2 -37 38 -102 57 -246 77 -384 54z"/>
<path d="M1262 1319 c-207 -55 -412 -215 -531 -412 -130 -216 -132 -396 -5
-477 94 -59 196 -30 247 69 23 47 27 66 27 143 0 120 22 214 78 328 38 79 61
110 132 181 100 101 178 144 290 162 95 14 67 26 -65 26 -68 0 -123 -6 -173
-20z"/>
<path d="M1985 1284 c-11 -1 -74 -8 -140 -15 -137 -14 -131 -21 30 -38 329
-35 626 -133 895 -295 59 -35 123 -69 142 -74 106 -29 188 95 125 189 -42 63
-302 168 -502 203 -173 30 -447 45 -550 30z"/>
<path d="M1481 1255 c-180 -67 -316 -232 -371 -449 -24 -96 -27 -258 -5 -329
42 -141 125 -215 195 -177 40 21 42 45 15 130 -48 154 -52 362 -8 495 43 133
126 256 217 320 57 41 46 43 -43 10z"/>
<path d="M1512 1160 c-158 -188 -201 -436 -120 -700 41 -135 137 -291 201
-331 62 -37 137 -13 137 44 0 12 -28 63 -62 112 -74 110 -117 200 -154 325
-25 83 -28 112 -29 235 0 151 16 229 71 337 13 27 22 48 20 48 -3 0 -32 -31
-64 -70z"/>
<path d="M1745 1192 c17 -10 80 -45 140 -77 302 -161 503 -288 695 -440 52
-41 110 -82 128 -91 45 -21 97 -11 134 26 23 23 28 37 28 74 0 39 -6 52 -36
86 -118 130 -491 292 -886 384 -84 20 -169 40 -188 46 -48 14 -50 13 -15 -8z"/>
<path d="M1582 1111 c-86 -309 18 -662 270 -920 83 -84 145 -98 188 -43 34 42
26 63 -76 183 -242 288 -345 520 -357 804 l-2 60 -23 -84z"/>
<path d="M1708 1153 c58 -108 257 -323 558 -605 176 -164 220 -197 262 -198
69 -1 123 71 102 136 -24 71 -265 254 -630 479 -96 59 -204 130 -239 158 -38
31 -59 43 -53 30z"/>
<path d="M1655 1115 c37 -220 110 -386 258 -585 96 -129 251 -288 304 -312 39
-17 45 -17 78 -4 45 19 70 70 55 113 -6 16 -88 103 -191 202 -246 237 -355
364 -456 534 -49 84 -54 88 -48 52z"/>
<path d="M996 384 c-21 -21 -20 -41 3 -54 11 -5 22 -10 25 -10 8 0 36 31 36
40 0 11 -29 40 -40 40 -5 0 -16 -7 -24 -16z"/>
<path d="M1342 228 c-17 -17 -15 -53 3 -68 8 -7 25 -10 40 -6 43 11 30 86 -15
86 -9 0 -21 -5 -28 -12z"/>
</g>
<text x="350" y="250" fill="#CCDDEE" font-family="sans-serif" font-size="150" font-weight="bold">fossil</text>
</svg>
